<?xml version="1.0" encoding="UTF-8"?> <svg xmlns="http://www.w3.org/2000/svg" width="1366" height="76.523" viewBox="0 0 1366 76.523" preserveAspectRatio="xMidYMax slice"><path id="Subtraction_24" data-name="Subtraction 24" d="M737.226,76.523c-23.559,0-47.16-.8-70.15-2.369-23.254-1.59-45.991-3.981-67.579-7.107-12.509-1.827-25.3-3.684-39.528-5.748l-.254-.037c-12.881-1.868-26.563-3.854-39.782-5.785-21.591-3.126-44.33-5.518-67.585-7.108C429.338,46.8,405.725,46,382.163,46s-47.2.8-70.25,2.369c-23.3,1.591-46.105,3.983-67.773,7.108-11.853,1.732-24.3,3.539-35.288,5.133l-.322.047-1.237.179-3,.435-.42.061-.784.114c-12.013,1.743-25.628,3.719-38.516,5.6A943.137,943.137,0,0,1,58,76.061V0H1424V76.258c-19.568-.44-39.116-1.437-58.1-2.963-19.188-1.541-38.037-3.643-56.023-6.248-11.571-1.69-23.785-3.463-34.561-5.028l-.167-.024-2.781-.4-2.332-.339-.333-.048-3.5-.509c-11.08-1.608-23.639-3.431-35.888-5.22-21.58-3.125-44.318-5.517-67.584-7.108C1139.716,46.8,1116.1,46,1092.54,46s-47.2.8-70.249,2.369c-23.308,1.591-46.11,3.983-67.773,7.108-11.686,1.707-23.819,3.468-34.524,5.022l-1.93.28-.1.014-2.755.4-.416.06-.506.074c-12.289,1.784-26.218,3.805-39.335,5.72-21.588,3.126-44.325,5.517-67.579,7.107C784.387,75.726,760.785,76.523,737.226,76.523Z" transform="translate(-58)" fill="#fff"></path></svg> 